<svg width="24" height="25" viewBox="0 0 24 25" fill="none" xmlns="http://www.w3.org/2000/svg">
<g id="ant-design:apple-filled">
<path id="Vector" d="M17.5172 13.1638C17.5078 11.5654 18.232 10.3607 19.6945 9.4724C18.8766 8.30053 17.6391 7.65599 16.0078 7.53177C14.4633 7.4099 12.7734 8.43178 12.1547 8.43178C11.5008 8.43178 10.0055 7.57396 8.82891 7.57396C6.40078 7.61146 3.82031 9.5099 3.82031 13.3724C3.82031 14.5138 4.02891 15.6927 4.44609 16.9068C5.00391 18.5052 7.01484 22.4216 9.1125 22.3583C10.2094 22.3326 10.9852 21.5802 12.4125 21.5802C13.7977 21.5802 14.5148 22.3583 15.7383 22.3583C17.8547 22.3279 19.6734 18.7677 20.2031 17.1646C17.3648 15.8263 17.5172 13.2458 17.5172 13.1638ZM15.0539 6.01537C16.2422 4.60443 16.1344 3.32006 16.0992 2.85834C15.0492 2.91927 13.8352 3.57318 13.1437 4.37709C12.382 5.23959 11.9344 6.30599 12.0305 7.50834C13.1648 7.59506 14.2008 7.01146 15.0539 6.01537Z" fill="white"/>
</g>
</svg>
