<svg width="194" height="140" viewBox="0 0 194 140" fill="none" xmlns="http://www.w3.org/2000/svg">
<ellipse cx="97.0377" cy="105.877" rx="96.6334" ry="29.5458" fill="#D2E2FF"/>
<path d="M44.6494 46.8084L90.5768 77.4266C92.49 78.703 94.7383 79.3842 97.0381 79.3842C99.338 79.3842 101.586 78.703 103.499 77.4266L149.427 46.8084M56.2913 110.839H137.785C140.873 110.839 143.834 109.612 146.017 107.429C148.2 105.246 149.427 102.285 149.427 99.197V40.9874C149.427 37.8998 148.2 34.9386 146.017 32.7553C143.834 30.572 140.873 29.3455 137.785 29.3455H56.2913C53.2037 29.3455 50.2425 30.572 48.0593 32.7553C45.876 34.9386 44.6494 37.8998 44.6494 40.9874V99.197C44.6494 102.285 45.876 105.246 48.0593 107.429C50.2425 109.612 53.2037 110.839 56.2913 110.839Z" stroke="#0047D1" stroke-width="5.2" stroke-linecap="round" stroke-linejoin="round"/>
</svg>
