<svg width="26" height="27" viewBox="0 0 26 27" fill="none" xmlns="http://www.w3.org/2000/svg">
<g id="Eye icon toggle" clip-path="url(#clip0_4713_2198)">
<path id="Vector" d="M18.1925 15.6061C18.3999 15.0518 18.5051 14.4645 18.503 13.8727C18.503 12.5587 17.981 11.2985 17.0519 10.3694C16.1228 9.44026 14.8626 8.91827 13.5486 8.91827C12.9641 8.91896 12.3844 9.02413 11.8369 9.22883L12.9997 10.4277C13.1764 10.3994 13.3551 10.385 13.5341 10.3844C14.4632 10.3824 15.3553 10.7482 16.0157 11.4018C16.676 12.0554 17.051 12.9437 17.0586 13.8727C17.058 14.0517 17.0435 14.2304 17.0152 14.4072L18.1925 15.6061Z" fill="black"/>
<path id="Vector_2" d="M24.7647 13.5333C22.3308 9.03387 18.0625 6.3111 13.3391 6.3111C12.0531 6.31412 10.7757 6.52132 9.55469 6.92498L10.7175 8.09498C11.5739 7.87365 12.4546 7.75962 13.3391 7.75554C17.4052 7.75554 21.103 10.0233 23.3058 13.8439C22.4977 15.2613 21.4265 16.5115 20.1497 17.5272L21.1752 18.5528C22.653 17.3606 23.8802 15.8879 24.7864 14.2194L24.9741 13.8728L24.7647 13.5333Z" fill="black"/>
<path id="Vector_3" d="M3.51708 5.04718L6.73819 8.26829C4.70219 9.57921 3.03818 11.3925 1.90653 13.5333L1.71875 13.8727L1.90653 14.2194C4.34042 18.7188 8.60875 21.4416 13.3321 21.4416C15.1757 21.4413 16.9953 21.024 18.6549 20.2211L22.266 23.8322L23.5299 22.7488L4.75208 3.97107L3.51708 5.04718ZM10.5588 12.0888L15.3615 16.8916C14.8189 17.2275 14.1942 17.4074 13.556 17.4116C13.0923 17.4116 12.6331 17.3199 12.205 17.1418C11.7768 16.9637 11.3881 16.7027 11.0612 16.3738C10.7343 16.0449 10.4757 15.6546 10.3002 15.2254C10.1248 14.7961 10.0359 14.3364 10.0388 13.8727C10.0469 13.2419 10.2267 12.6252 10.5588 12.0888ZM9.51153 11.0416C8.83584 11.9945 8.51914 13.1558 8.6175 14.3198C8.71586 15.4838 9.22293 16.5754 10.0489 17.4014C10.8749 18.2274 11.9666 18.7345 13.1306 18.8329C14.2946 18.9312 15.4559 18.6145 16.4088 17.9388L17.5643 19.0944C16.2266 19.6662 14.7869 19.961 13.3321 19.9611C9.26597 19.9611 5.56819 17.6933 3.36542 13.8727C4.42254 12.0009 5.945 10.4337 7.78542 9.32274L9.51153 11.0416Z" fill="black"/>
</g>
<defs>
<clipPath id="clip0_4713_2198">
<rect width="26" height="26" fill="white" transform="translate(0 0.872742)"/>
</clipPath>
</defs>
</svg>
