<svg width="24" height="25" viewBox="0 0 24 25" fill="none" xmlns="http://www.w3.org/2000/svg">
<path d="M21.8055 10.6498H21V10.6083H12V14.6083H17.6515C16.827 16.9368 14.6115 18.6083 12 18.6083C8.6865 18.6083 6 15.9218 6 12.6083C6 9.29484 8.6865 6.60834 12 6.60834C13.5295 6.60834 14.921 7.18534 15.9805 8.12784L18.809 5.29934C17.023 3.63484 14.634 2.60834 12 2.60834C6.4775 2.60834 2 7.08584 2 12.6083C2 18.1308 6.4775 22.6083 12 22.6083C17.5225 22.6083 22 18.1308 22 12.6083C22 11.9378 21.931 11.2833 21.8055 10.6498Z" fill="#FFC107"/>
<path d="M3.15332 7.95384L6.43882 10.3633C7.32782 8.16234 9.48082 6.60834 12.0003 6.60834C13.5298 6.60834 14.9213 7.18534 15.9808 8.12784L18.8093 5.29934C17.0233 3.63484 14.6343 2.60834 12.0003 2.60834C8.15932 2.60834 4.82832 4.77684 3.15332 7.95384Z" fill="#FF3D00"/>
<path d="M12.0002 22.6083C14.5832 22.6083 16.9302 21.6198 18.7047 20.0123L15.6097 17.3933C14.5719 18.1825 13.3039 18.6094 12.0002 18.6083C9.39916 18.6083 7.19066 16.9498 6.35866 14.6353L3.09766 17.1478C4.75266 20.3863 8.11366 22.6083 12.0002 22.6083Z" fill="#4CAF50"/>
<path d="M21.8055 10.6498H21V10.6083H12V14.6083H17.6515C17.2571 15.7165 16.5467 16.6849 15.608 17.3938L15.6095 17.3928L18.7045 20.0118C18.4855 20.2108 22 17.6083 22 12.6083C22 11.9378 21.931 11.2833 21.8055 10.6498Z" fill="#1976D2"/>
</svg>
