<svg width="208" height="43" viewBox="0 0 208 43" fill="none" xmlns="http://www.w3.org/2000/svg">
<path d="M51.6147 32.8707V10.1011H60.7163C62.3336 10.1011 63.6655 10.4182 64.6486 11.0842C65.6634 11.7184 66.3928 12.5429 66.8368 13.526C67.3125 14.5091 67.5345 15.4922 67.5345 16.507C67.5345 17.7755 67.2491 18.8538 66.6782 19.6783C66.1074 20.5345 65.3146 21.0736 64.2998 21.359V20.5662C65.7269 20.8516 66.8051 21.5176 67.5028 22.5324C68.2004 23.5472 68.581 24.6889 68.581 25.9574C68.581 27.321 68.3273 28.5261 67.8199 29.5409C67.3125 30.5874 66.5514 31.3802 65.5366 31.9828C64.5218 32.5536 63.2216 32.8707 61.6676 32.8707H51.6147ZM55.9911 18.9806H60.6846C61.1602 18.9806 61.6042 18.8855 61.9848 18.7269C62.3653 18.5683 62.6507 18.2829 62.8727 17.9341C63.0947 17.5852 63.1898 17.1096 63.1898 16.5704C63.1898 15.8728 62.9679 15.3019 62.5556 14.8263C62.1116 14.3506 61.5091 14.1286 60.6846 14.1286H55.9911V18.9806ZM55.9911 28.8115H61.2871C61.8579 28.8115 62.397 28.6847 62.841 28.431C63.285 28.1773 63.6655 27.8284 63.9192 27.3844C64.1729 26.9405 64.2998 26.4014 64.2998 25.7988C64.2998 25.2597 64.2047 24.784 63.9827 24.3717C63.7607 23.9595 63.4118 23.6106 62.9679 23.3569C62.5239 23.1032 61.9531 22.9764 61.2871 22.9764H55.9911V28.8115Z" fill="#2C2C2C"/>
<path d="M71.3091 13.3988V9.625H75.5903V13.4305H71.3091V13.3988ZM71.3091 32.8703V15.7772H75.5903V32.8703H71.3091Z" fill="#2C2C2C"/>
<path d="M77.6514 19.1072V15.7774H89.7973V19.1072H77.6514ZM89.7973 32.8705C88.6239 33.0925 87.4506 33.1876 86.3406 33.1559C85.199 33.1242 84.1842 32.9339 83.2962 32.5534C82.4083 32.1728 81.7423 31.5703 81.2666 30.7457C80.8543 29.9529 80.6324 29.1601 80.6006 28.3673C80.5689 27.5745 80.5689 26.6548 80.5689 25.6083V11.0205H84.8818V25.3546C84.8818 26.0206 84.8818 26.6231 84.9136 27.1622C84.9453 27.7013 85.0404 28.1136 85.2307 28.4307C85.6112 29.0333 86.2138 29.3504 87.0383 29.4138C87.8628 29.4772 88.7825 29.4138 89.7973 29.287V32.8705Z" fill="#2C2C2C"/>
<path d="M99.4704 33.3467C97.3139 33.3467 95.5698 32.871 94.2695 31.8879C92.9376 30.9048 92.1448 29.5412 91.8594 27.7653L96.2674 27.0993C96.4577 27.8921 96.8383 28.5264 97.4725 28.9704C98.1068 29.4143 98.8679 29.6363 99.8192 29.6363C100.612 29.6363 101.215 29.4778 101.627 29.1923C102.039 28.9069 102.261 28.463 102.261 27.9238C102.261 27.575 102.166 27.3213 102.007 27.0993C101.849 26.8773 101.468 26.687 100.866 26.4968C100.295 26.3065 99.3753 26.0211 98.1385 25.704C96.7431 25.3551 95.6332 24.9429 94.8087 24.4989C93.9841 24.0549 93.3816 23.5158 93.001 22.9132C92.6205 22.3107 92.4619 21.5496 92.4619 20.6617C92.4619 19.5517 92.7473 18.6003 93.2864 17.8075C93.8573 17.0147 94.6184 16.3804 95.6649 15.9365C96.6797 15.4925 97.8848 15.2705 99.2484 15.2705C100.58 15.2705 101.785 15.4608 102.8 15.873C103.815 16.2853 104.671 16.8561 105.306 17.6172C105.94 18.3783 106.32 19.2663 106.479 20.3128L102.071 21.1056C102.007 20.4714 101.722 19.964 101.246 19.6151C100.771 19.2346 100.136 19.0443 99.3118 18.9809C98.519 18.9175 97.8848 19.0443 97.4091 19.298C96.9334 19.5517 96.6797 19.9323 96.6797 20.4397C96.6797 20.7251 96.7748 20.9788 96.9968 21.1691C97.1871 21.3593 97.6311 21.5813 98.2653 21.7716C98.8996 21.9936 99.9144 22.2473 101.246 22.5961C102.547 22.945 103.593 23.3255 104.386 23.7695C105.179 24.2135 105.75 24.7526 106.098 25.3868C106.447 26.0211 106.637 26.7822 106.637 27.6701C106.637 29.4143 106.003 30.8097 104.735 31.7928C103.466 32.8393 101.722 33.3467 99.4704 33.3467Z" fill="#2C2C2C"/>
<path d="M109.333 32.8705V10.1008H118.942C119.164 10.1008 119.449 10.1008 119.83 10.1325C120.21 10.1325 120.528 10.196 120.845 10.2277C122.208 10.4497 123.318 10.8936 124.175 11.5596C125.031 12.2573 125.697 13.1135 126.109 14.16C126.521 15.2066 126.712 16.3482 126.712 17.6167C126.712 18.8852 126.49 20.0586 126.077 21.0734C125.665 22.1199 125.031 22.9761 124.143 23.6738C123.255 24.3715 122.177 24.8155 120.813 25.0058C120.528 25.0375 120.179 25.0692 119.798 25.1009C119.418 25.1326 119.132 25.1326 118.91 25.1326H113.582V32.8388H109.333V32.8705ZM113.614 21.1368H118.752C118.974 21.1368 119.227 21.1368 119.481 21.1051C119.735 21.0734 119.988 21.0417 120.21 20.9783C120.781 20.8197 121.225 20.566 121.542 20.1854C121.859 19.8049 122.081 19.3926 122.208 18.9486C122.335 18.5047 122.399 18.0607 122.399 17.6484C122.399 17.2362 122.335 16.7922 122.208 16.3482C122.081 15.9042 121.859 15.4603 121.542 15.1114C121.225 14.7309 120.781 14.4772 120.21 14.3186C119.988 14.2552 119.735 14.2235 119.481 14.1918C119.227 14.16 118.974 14.16 118.752 14.16H113.614V21.1368Z" fill="#2C2C2C"/>
<path d="M129.408 32.8699V9.62451H133.721V32.8699H129.408Z" fill="#2C2C2C"/>
<path d="M145.613 33.3465C143.869 33.3465 142.315 32.9659 140.983 32.2048C139.651 31.4437 138.605 30.3972 137.844 29.097C137.083 27.7651 136.702 26.2429 136.702 24.5621C136.702 22.6911 137.083 21.0737 137.812 19.6784C138.541 18.283 139.556 17.2365 140.856 16.4754C142.157 15.7143 143.647 15.3337 145.328 15.3337C147.136 15.3337 148.658 15.746 149.895 16.6022C151.163 17.4585 152.083 18.6319 152.685 20.1541C153.288 21.6763 153.51 23.4839 153.32 25.5452H149.07V23.9596C149.07 22.2154 148.785 20.9786 148.246 20.2175C147.706 19.4564 146.787 19.0758 145.518 19.0758C144.059 19.0758 142.981 19.5198 142.284 20.4078C141.586 21.2957 141.237 22.6276 141.237 24.3401C141.237 25.9258 141.586 27.1625 142.284 28.0188C142.981 28.875 143.996 29.319 145.328 29.319C146.184 29.319 146.882 29.1287 147.484 28.7799C148.087 28.3993 148.531 27.8919 148.848 27.1943L153.161 28.431C152.527 29.985 151.512 31.19 150.117 32.078C148.753 32.9025 147.262 33.3465 145.613 33.3465ZM139.937 25.5135V22.3422H151.258V25.5452H139.937V25.5135Z" fill="#2C2C2C"/>
<path d="M160.518 33.3462C159.282 33.3462 158.267 33.1242 157.41 32.6486C156.554 32.1729 155.92 31.5386 155.476 30.7775C155.032 29.9847 154.81 29.1285 154.81 28.1771C154.81 27.3843 154.937 26.6549 155.159 26.0206C155.413 25.3547 155.793 24.7838 156.332 24.2764C156.871 23.769 157.601 23.3568 158.52 23.0079C159.155 22.7859 159.916 22.5639 160.772 22.4054C161.628 22.2468 162.643 22.0565 163.753 21.898C164.863 21.7394 166.068 21.5491 167.4 21.3589L165.846 22.2151C165.846 21.2003 165.592 20.4709 165.117 19.9952C164.641 19.5195 163.816 19.2975 162.675 19.2975C162.041 19.2975 161.375 19.4561 160.709 19.7415C160.011 20.0587 159.535 20.5978 159.282 21.3589L155.444 20.0904C155.888 18.6633 156.681 17.5216 157.886 16.6337C159.091 15.7457 160.709 15.3018 162.77 15.3018C164.292 15.3018 165.624 15.5237 166.797 15.9994C167.971 16.4751 168.859 17.2679 169.461 18.4096C169.81 19.0438 170 19.6781 170.064 20.3123C170.127 20.9466 170.159 21.6443 170.159 22.4371V32.8705H166.385V29.3504L166.924 30.0798C166.1 31.2215 165.18 32.046 164.229 32.5851C163.214 33.0925 162.009 33.3462 160.518 33.3462ZM161.438 29.953C162.231 29.953 162.897 29.8261 163.436 29.5407C163.975 29.2553 164.419 28.9382 164.736 28.5893C165.053 28.2405 165.275 27.9234 165.402 27.7014C165.624 27.2257 165.751 26.6866 165.783 26.084C165.814 25.4815 165.846 24.9424 165.846 24.5301L167.115 24.8473C165.846 25.0692 164.8 25.2278 164.007 25.3864C163.214 25.5449 162.58 25.6718 162.104 25.7669C161.628 25.8938 161.184 26.0206 160.835 26.1475C160.423 26.306 160.074 26.4963 159.821 26.6866C159.567 26.8769 159.377 27.0989 159.25 27.3208C159.123 27.5428 159.06 27.7965 159.06 28.0819C159.06 28.4625 159.155 28.8113 159.345 29.0967C159.535 29.3822 159.821 29.6041 160.169 29.731C160.518 29.8896 160.962 29.953 161.438 29.953Z" fill="#2C2C2C"/>
<path d="M180.117 33.3465C177.961 33.3465 176.217 32.8708 174.917 31.8877C173.585 30.9046 172.792 29.5409 172.506 27.765L176.914 27.0991C177.105 27.8919 177.485 28.5261 178.119 28.9701C178.754 29.4141 179.515 29.6361 180.466 29.6361C181.259 29.6361 181.862 29.4775 182.274 29.1921C182.686 28.9067 182.908 28.4627 182.908 27.9236C182.908 27.5748 182.813 27.3211 182.654 27.0991C182.496 26.8771 182.115 26.6868 181.513 26.4965C180.942 26.3062 180.022 26.0208 178.785 25.7037C177.39 25.3549 176.28 24.9426 175.456 24.4986C174.631 24.0547 174.029 23.5155 173.648 22.913C173.267 22.3105 173.109 21.5494 173.109 20.6614C173.109 19.5515 173.394 18.6001 173.933 17.8073C174.504 17.0145 175.265 16.3802 176.312 15.9362C177.327 15.4923 178.532 15.2703 179.895 15.2703C181.227 15.2703 182.432 15.4605 183.447 15.8728C184.462 16.2851 185.318 16.8559 185.953 17.617C186.587 18.3781 186.967 19.2661 187.126 20.3126L182.718 21.1054C182.654 20.4711 182.369 19.9637 181.893 19.6149C181.418 19.2343 180.783 19.0441 179.959 18.9806C179.166 18.9172 178.532 19.0441 178.056 19.2978C177.58 19.5515 177.327 19.932 177.327 20.4394C177.327 20.7248 177.422 20.9785 177.644 21.1688C177.834 21.3591 178.278 21.5811 178.912 21.7713C179.547 21.9933 180.561 22.247 181.893 22.5959C183.194 22.9447 184.24 23.3253 185.033 23.7692C185.826 24.2132 186.396 24.7523 186.745 25.3866C187.094 26.0208 187.284 26.7819 187.284 27.6699C187.284 29.4141 186.65 30.8094 185.382 31.7925C184.113 32.839 182.337 33.3465 180.117 33.3465Z" fill="#2C2C2C"/>
<path d="M197.909 33.3465C196.165 33.3465 194.611 32.9659 193.279 32.2048C191.947 31.4437 190.9 30.3972 190.139 29.097C189.378 27.7651 188.998 26.2429 188.998 24.5621C188.998 22.6911 189.378 21.0737 190.107 19.6784C190.837 18.283 191.852 17.2365 193.152 16.4754C194.452 15.7143 195.943 15.3337 197.623 15.3337C199.431 15.3337 200.953 15.746 202.19 16.6022C203.459 17.4585 204.378 18.6319 204.981 20.1541C205.583 21.6763 205.805 23.4839 205.615 25.5452H201.365V23.9596C201.365 22.2154 201.08 20.9786 200.541 20.2175C200.002 19.4564 199.082 19.0758 197.814 19.0758C196.355 19.0758 195.277 19.5198 194.579 20.4078C193.881 21.2957 193.532 22.6276 193.532 24.3401C193.532 25.9258 193.881 27.1625 194.579 28.0188C195.277 28.875 196.291 29.319 197.623 29.319C198.48 29.319 199.177 29.1287 199.78 28.7799C200.382 28.3993 200.826 27.8919 201.144 27.1943L205.456 28.431C204.822 29.985 203.807 31.19 202.412 32.078C201.048 32.9025 199.526 33.3465 197.909 33.3465ZM192.232 25.5135V22.3422H203.554V25.5452H192.232V25.5135Z" fill="#2C2C2C"/>
<rect x="0.902832" y="0.4375" width="42.2108" height="42.2108" rx="4.55156" fill="#0047D1"/>
<path d="M31.5399 24.4166C31.5399 26.3285 31.0388 28.129 30.1849 29.6697C29.2939 31.2661 27.9946 32.584 26.4539 33.5121C24.9504 34.4031 23.2055 34.9228 21.3493 34.9228H12.4766C12.4766 32.6025 12.4766 31.8972 12.4766 29.6697H21.2565C23.8923 29.6697 26.2868 27.4608 26.4353 24.7507C26.621 21.7065 24.2636 19.1821 21.3493 19.1821V13.9104C23.2055 13.9104 24.9504 14.4301 26.4539 15.3211C27.9946 16.2492 29.2939 17.5672 30.1849 19.1635C31.0573 20.7042 31.5399 22.5047 31.5399 24.4166Z" fill="white"/>
<path d="M17.7334 25.2413V8.16406H12.4803V25.2413H17.7334Z" fill="white"/>
</svg>
