<svg width="44" height="43" viewBox="0 0 44 43" fill="none" xmlns="http://www.w3.org/2000/svg">
<rect x="0.902832" y="0.4375" width="42.2108" height="42.2108" rx="4.55156" fill="#0047D1"/>
<path d="M31.5399 24.4166C31.5399 26.3285 31.0388 28.129 30.1849 29.6697C29.2939 31.2661 27.9946 32.584 26.4539 33.5121C24.9504 34.4031 23.2055 34.9228 21.3493 34.9228H12.4766C12.4766 32.6025 12.4766 31.8972 12.4766 29.6697H21.2565C23.8923 29.6697 26.2868 27.4608 26.4353 24.7507C26.621 21.7065 24.2636 19.1821 21.3493 19.1821V13.9104C23.2055 13.9104 24.9504 14.4301 26.4539 15.3211C27.9946 16.2492 29.2939 17.5672 30.1849 19.1635C31.0573 20.7042 31.5399 22.5047 31.5399 24.4166Z" fill="white"/>
<path d="M17.7334 25.2413V8.16406H12.4803V25.2413H17.7334Z" fill="white"/>
</svg>
